<svg width="216" height="31" viewBox="0 0 216 31" fill="none" xmlns="http://www.w3.org/2000/svg">
<g clip-path="url(#clip0_1010_90)">
<path d="M215.079 23.072C213.479 24.064 211.144 24.576 208.68 24.576C203.208 24.576 199.399 21.312 199.399 15.776C199.399 10.528 202.471 6.976 207.783 6.976C212.199 6.976 215.88 9.888 215.88 14.944C215.88 15.488 215.847 16.224 215.783 16.832H204.807C205.255 19.264 207.272 20.256 209.768 20.256C211.912 20.256 213.799 19.52 214.983 18.272H215.079V23.072ZM207.815 10.592C206.119 10.592 205.063 11.52 204.775 13.088H210.632C210.535 11.648 209.447 10.592 207.815 10.592Z" fill="black"/>
<path d="M196.366 24H191.246V22.848H191.214C190.062 23.872 188.654 24.576 186.638 24.576C183.63 24.576 181.07 22.688 181.07 19.2C181.07 16 183.246 13.856 187.214 13.856C188.782 13.856 190.062 14.176 191.118 14.688V13.888C191.118 12.064 189.518 11.296 187.278 11.296C185.326 11.296 183.406 12.128 182.158 13.312H182.062V8.576C183.758 7.552 185.998 6.976 188.334 6.976C192.814 6.976 196.366 8.96 196.366 14.144V24ZM191.118 19.488V18.08C190.414 17.664 189.422 17.44 188.462 17.44C186.958 17.44 186.19 17.952 186.19 19.008C186.19 19.936 186.958 20.672 188.398 20.672C189.454 20.672 190.446 20.288 191.118 19.488Z" fill="black"/>
<path d="M168.656 30.368C166.736 30.368 164.304 30.016 162.608 28.896V23.808H162.736C163.856 25.408 166.032 26.112 168.048 26.112C170.704 26.112 172.048 24.896 172.048 23.136V21.92C170.736 23.04 169.104 23.616 167.312 23.616C163.6 23.616 160.464 20.832 160.464 15.296C160.464 9.824 163.6 6.976 167.792 6.976C169.808 6.976 171.408 7.712 172.56 8.608H172.592L177.232 7.168H177.296V22.752C177.296 27.648 173.872 30.368 168.656 30.368ZM172.048 17.728V12.768C171.408 12.096 170.416 11.712 169.424 11.712C167.504 11.712 166.128 13.024 166.128 15.264C166.128 17.536 167.472 18.912 169.328 18.912C170.416 18.912 171.376 18.496 172.048 17.728Z" fill="black"/>
<path d="M157.119 24H151.871V7.552H157.119V24ZM157.247 4.32H151.743V0H157.247V4.32Z" fill="black"/>
<path d="M137.557 24H132.309V0H137.557V24ZM149.045 24H142.869L137.781 15.744V15.616L142.613 7.552H148.661L143.573 15.456V15.52L149.045 24Z" fill="black"/>
<path d="M127.892 23.072C126.292 24.064 123.956 24.576 121.492 24.576C116.02 24.576 112.212 21.312 112.212 15.776C112.212 10.528 115.284 6.976 120.596 6.976C125.012 6.976 128.692 9.888 128.692 14.944C128.692 15.488 128.66 16.224 128.596 16.832H117.62C118.068 19.264 120.084 20.256 122.58 20.256C124.724 20.256 126.612 19.52 127.796 18.272H127.892V23.072ZM122.708 5.888H118.228L121.78 0H126.932L122.708 5.888ZM120.628 10.592C118.932 10.592 117.876 11.52 117.588 13.088H123.444C123.348 11.648 122.26 10.592 120.628 10.592Z" fill="black"/>
<path d="M109.512 17.664C109.512 21.568 106.696 24.576 101.576 24.576C98.9525 24.576 96.7125 24.064 94.9525 22.944V17.408H95.0805C96.7125 19.008 99.2405 19.84 101.192 19.84C102.984 19.84 103.976 19.264 103.976 18.048C103.976 14.88 95.0485 15.936 95.0485 8.544C95.0485 5.024 97.0965 1.6 102.6 1.6C104.776 1.6 107.08 2.08 108.744 3.232V8.768H108.617C106.985 7.168 104.936 6.336 103.016 6.336C101.448 6.336 100.617 7.008 100.617 8.032C100.617 11.232 109.512 10.176 109.512 17.664Z" fill="black"/>
<path d="M81.2845 24H76.0365V14.592C76.0365 12.64 74.8845 11.712 73.2845 11.712C71.9725 11.712 70.9165 12.352 70.2445 13.216V24H64.9965V7.552H70.2125V8.8H70.2445C71.5565 7.648 73.0605 6.976 75.1085 6.976C78.3725 6.976 81.2845 8.832 81.2845 12.832V24Z" fill="black"/>
<path d="M60.5795 23.072C58.9795 24.064 56.6435 24.576 54.1795 24.576C48.7075 24.576 44.8995 21.312 44.8995 15.776C44.8995 10.528 47.9715 6.976 53.2835 6.976C57.6995 6.976 61.3795 9.888 61.3795 14.944C61.3795 15.488 61.3475 16.224 61.2835 16.832H50.3075C50.7555 19.264 52.7715 20.256 55.2675 20.256C57.4115 20.256 59.2995 19.52 60.4835 18.272H60.5795V23.072ZM53.3155 10.592C51.6195 10.592 50.5635 11.52 50.2755 13.088H56.1315C56.0355 11.648 54.9475 10.592 53.3155 10.592Z" fill="black"/>
<path d="M42.711 15.776C42.711 21.312 39.511 24.576 35.191 24.576C33.367 24.576 31.895 24.096 30.839 23.328H30.807V30.176H25.559V7.552H30.775V8.8H30.807C32.119 7.648 33.591 6.976 35.607 6.976C39.831 6.976 42.711 10.432 42.711 15.776ZM37.207 15.776C37.207 13.184 35.799 11.712 33.815 11.712C32.535 11.712 31.447 12.352 30.807 13.216V18.496C31.415 19.232 32.503 19.872 33.719 19.872C35.799 19.872 37.207 18.432 37.207 15.776Z" fill="black"/>
<path d="M21.984 13.088C21.984 20.16 17.472 24.576 10.912 24.576C4.64 24.576 0 20.224 0 13.088C0 6.016 4.512 1.6 11.072 1.6C17.344 1.6 21.984 5.984 21.984 13.088ZM16.224 13.088C16.224 9.056 14.112 6.72 11.072 6.72C8.064 6.72 5.76 8.864 5.76 13.088C5.76 17.12 7.872 19.456 10.912 19.456C13.952 19.456 16.224 17.312 16.224 13.088Z" fill="black"/>
</g>
<defs>
<clipPath id="clip0_1010_90">
<rect width="215.879" height="30.368" fill="white"/>
</clipPath>
</defs>
</svg>
